<svg id="Layer_1" data-name="Layer 1" xmlns="http://www.w3.org/2000/svg" viewBox="0 0 214.27 147.4"><defs><style>.cls-1{fill:#231f20;}</style></defs><path class="cls-1" d="M114.45,147.2c-.91-4.86-1-9.88-2.67-14.67-1.15-3.26-1.74-4.85.17-8a5.6,5.6,0,0,0,.28-.54,8.24,8.24,0,0,1-.84-.43c-.41,1.07-.82,2.12-1.18,3.16a129.36,129.36,0,0,0-6.62-15.18,193.63,193.63,0,0,0-9.91-17L34.53,0H0L93.68,147.4h20.84C114.5,147.33,114.47,147.27,114.45,147.2Z"/><path class="cls-1" d="M149.66,0q27.45,0,40.56,10.43t13.11,31.48q0,11.76-4.33,19.61A36.19,36.19,0,0,1,188,74a61.15,61.15,0,0,1-14.14,7.33l40.46,66.06H192.6L156.88,86.5H127.57v60.9H109V0Zm-1,16.1H127.57V70.81h22.09q18,0,26.22-7.12t8.25-21q0-14.44-8.67-20.54T148.62,16.1Z"/></svg>